<svg
  width="32"
  height="32"
  viewBox="0 0 32 32"
  fill="none"
  xmlns="http://www.w3.org/2000/svg"
>
<path
    d="M9.33329 30.6666C8.59996 30.6666 7.97218 30.4055 7.44996 29.8833C6.92774 29.3611 6.66663 28.7333 6.66663 28V3.99998C6.66663 3.26665 6.92774 2.63887 7.44996 2.11665C7.97218 1.59442 8.59996 1.33331 9.33329 1.33331H22.6666C23.4 1.33331 24.0277 1.59442 24.55 2.11665C25.0722 2.63887 25.3333 3.26665 25.3333 3.99998V8.13331C25.7333 8.28887 26.0555 8.53331 26.3 8.86665C26.5444 9.19998 26.6666 9.57776 26.6666 9.99998V12.6666C26.6666 13.0889 26.5444 13.4666 26.3 13.8C26.0555 14.1333 25.7333 14.3778 25.3333 14.5333V28C25.3333 28.7333 25.0722 29.3611 24.55 29.8833C24.0277 30.4055 23.4 30.6666 22.6666 30.6666H9.33329ZM9.33329 28H22.6666V3.99998H9.33329V28ZM16 22.6666C16.3777 22.6666 16.7055 22.5278 16.9833 22.25C17.2611 21.9722 17.4 21.6444 17.4 21.2666C17.4 20.8889 17.2611 20.5611 16.9833 20.2833C16.7055 20.0055 16.3777 19.8666 16 19.8666C15.6222 19.8666 15.2944 20.0055 15.0166 20.2833C14.7388 20.5611 14.6 20.8889 14.6 21.2666C14.6 21.6444 14.7388 21.9722 15.0166 22.25C15.2944 22.5278 15.6222 22.6666 16 22.6666ZM15 18.4H17C17 17.6889 17.0666 17.2 17.2 16.9333C17.3333 16.6666 17.7333 16.2 18.4 15.5333C18.8 15.1333 19.1333 14.7 19.4 14.2333C19.6666 13.7666 19.8 13.2666 19.8 12.7333C19.8 11.6 19.4277 10.75 18.6833 10.1833C17.9388 9.61665 17.0444 9.33331 16 9.33331C15.0222 9.33331 14.2111 9.60554 13.5666 10.15C12.9222 10.6944 12.4666 11.3555 12.2 12.1333L14 12.8666C14.1111 12.4889 14.3222 12.1278 14.6333 11.7833C14.9444 11.4389 15.4 11.2666 16 11.2666C16.6 11.2666 17.05 11.4222 17.35 11.7333C17.65 12.0444 17.8 12.4 17.8 12.8C17.8 13.1778 17.6888 13.5166 17.4666 13.8166C17.2444 14.1166 16.9777 14.4222 16.6666 14.7333C15.8888 15.4 15.4166 15.9222 15.25 16.3C15.0833 16.6778 15 17.3778 15 18.4Z"
    fill="#0056B3"
  />
</svg>
