<svg
  width="350"
  height="104"
  viewBox="0 0 350 104"
  fill="none"
  xmlns="http://www.w3.org/2000/svg"
>
<path
    fill-rule="evenodd"
    clip-rule="evenodd"
    d="M65.2625 40.8962C65.2625 31.5369 72.863 24 82.5 24C92.0873 24 100 31.4636 100 40.8713C100 50.274 92.0925 57.7713 82.5 57.7713C80.3979 57.7713 78.6262 57.5023 76.8027 56.8506C76.7395 56.895 76.6695 56.9435 76.591 56.997C76.2101 57.2568 75.5509 57.6861 74.785 57.8511C74.3762 57.9395 74.0012 57.9019 73.8286 57.8817C73.6072 57.8556 73.3843 57.812 73.189 57.7686C72.81 57.6844 72.3784 57.5653 72.0087 57.4632L71.9804 57.4554C71.775 57.3987 71.5871 57.347 71.4167 57.302C71.4704 57.4211 71.5338 57.5544 71.6075 57.7048C71.6339 57.759 71.663 57.8176 71.6937 57.8797C71.8362 58.168 72.0151 58.5299 72.1464 58.8525C72.2303 59.0587 72.3249 59.3189 72.3874 59.6025C72.446 59.8683 72.5102 60.2995 72.4061 60.7881C72.2835 61.3632 71.9794 61.8764 71.7429 62.2224C71.474 62.6157 71.1374 63.0145 70.7661 63.3787C70.1081 64.0242 68.9926 64.9036 67.6689 65.0578C66.8362 65.1548 66.1004 64.9023 65.6637 64.7291C65.4929 64.6614 65.3269 64.5882 65.1776 64.5201C65.1867 64.5418 65.1957 64.5634 65.2045 64.585C65.3489 64.9365 65.5888 65.564 65.5747 66.2826C65.5468 67.9846 64.5496 69.0161 63.8479 69.6623C63.46 70.025 62.9629 70.4757 62.3493 70.8073C61.6682 71.1754 60.9302 71.3562 60.0884 71.3461L60.0872 71.3461C59.4297 71.3378 58.7216 71.1852 58.2725 71.0884C58.2164 71.0763 58.1644 71.0651 58.117 71.0551C57.8545 71 57.6783 70.967 57.5441 70.9515C57.5345 70.9504 57.5257 70.9494 57.5177 70.9486C57.5185 70.9561 57.5195 70.9637 57.5204 70.9717C57.546 71.1787 57.5704 71.3127 57.6011 71.4816C57.6303 71.6422 57.6653 71.8345 57.7125 72.1513C57.8308 72.9445 58.0912 74.8355 56.7012 76.1984C56.4335 76.4618 56.2254 76.6811 55.9503 76.9709C55.8517 77.0749 55.7444 77.188 55.6226 77.3154C55.1708 77.7883 54.5758 78.3991 53.5955 79.3539L53.5904 79.3589L53.5862 79.3629C52.8019 80.1171 51.8461 80.0256 51.4515 79.9491C51.0054 79.8625 50.6072 79.6773 50.3207 79.5248C49.7235 79.2068 49.0831 78.7405 48.5227 78.2959C47.3826 77.3915 46.2278 76.2982 45.7547 75.8037C45.0314 75.0475 44 73.5508 44 71.7588L44 71.7575C44.0004 71.123 44.1343 70.4957 44.3931 69.9165C44.6455 69.3513 45.0113 68.8441 45.4675 68.4262C45.7441 68.153 46.7915 66.9754 48.4011 65.1242C50.0005 63.2847 52.0675 60.8827 54.2643 58.3197C58.3068 53.6032 62.7795 48.352 65.567 45.0792C65.2616 43.6536 65.2621 42.2374 65.2625 41.0275C65.2625 40.9835 65.2625 40.9397 65.2625 40.8962ZM57.5044 70.7594C57.5045 70.7594 57.5044 70.761 57.5043 70.7639C57.5043 70.7608 57.5044 70.7594 57.5044 70.7594ZM71.2081 56.7327C71.2082 56.7327 71.2087 56.7353 71.2092 56.7404C71.2083 56.7351 71.208 56.7326 71.2081 56.7327ZM70.7295 57.146C70.731 57.1462 70.7325 57.1464 70.7341 57.1466C70.7051 57.145 70.7012 57.1427 70.7295 57.146ZM82.5 28C75.012 28 69.2625 33.8056 69.2625 40.8962C69.2625 42.5868 69.2816 43.8136 69.6642 44.9148C69.897 45.5849 69.7575 46.3281 69.2975 46.8681C69.0942 47.1068 68.8783 47.3603 68.651 47.6272C65.8667 50.8962 61.3671 56.1792 57.3014 60.9228C55.1028 63.4879 53.0284 65.8984 51.4196 67.7488C49.8556 69.5476 48.6381 70.9266 48.2243 71.3249C48.2075 71.341 48.1905 71.3569 48.1731 71.3724C48.1187 71.4212 48.0751 71.481 48.0453 71.5478C48.0156 71.6144 48.0001 71.6865 48 71.7594C48.0002 71.8924 48.045 72.104 48.1814 72.376C48.3159 72.6441 48.496 72.8828 48.6453 73.0388C48.9972 73.4067 50.0174 74.3759 51.0086 75.1622C51.2464 75.3509 51.4642 75.5142 51.6564 75.6492C52.1202 75.1863 52.4556 74.8398 52.7305 74.5521C52.8293 74.4487 52.9236 74.3493 53.0158 74.2521C53.2786 73.9753 53.5241 73.7165 53.8061 73.4359C53.8126 73.352 53.8169 73.148 53.7562 72.7412C53.7455 72.6693 53.723 72.5372 53.6964 72.3806C53.6453 72.0808 53.5789 71.6911 53.5506 71.4622C53.5026 71.0738 53.4155 70.262 53.7492 69.4834C54.0337 68.8196 54.427 68.1845 55.0627 67.7118C55.6802 67.2525 56.3318 67.0997 56.738 67.0141C57.2259 66.9114 57.6872 66.9412 58.0051 66.9781C58.3389 67.0169 58.6736 67.0847 58.9393 67.1405C58.9751 67.148 59.0099 67.1554 59.0437 67.1625C59.6042 67.2804 59.9034 67.3433 60.1371 67.3464C60.3324 67.3487 60.3944 67.3171 60.4476 67.2883C60.5653 67.2247 60.7349 67.097 61.1212 66.7357C61.1252 66.7319 61.1293 66.7281 61.1334 66.7244C61.4124 66.4677 61.5157 66.3393 61.5597 66.2682C61.5612 66.2657 61.5626 66.2634 61.5638 66.2613C61.5521 66.2266 61.5334 66.1753 61.5045 66.1048C61.4626 66.0029 61.4169 65.9006 61.3561 65.7646C61.3438 65.737 61.3308 65.7079 61.3171 65.6773C61.2432 65.5116 61.1511 65.3028 61.0668 65.0811C60.9061 64.6591 60.7007 64.0124 60.7433 63.2684C60.7908 62.4391 61.1349 61.6571 61.7881 61.0174C62.5247 60.296 63.4158 60.0307 64.2646 60.0657C65.0044 60.0963 65.6587 60.3531 66.0764 60.5332C66.2625 60.6134 66.4508 60.7013 66.6065 60.7739C66.6355 60.7874 66.6633 60.8004 66.6897 60.8127C66.8747 60.8987 67.0143 60.9617 67.1379 61.0107C67.1877 61.0304 67.228 61.0449 67.2596 61.0555C67.2925 61.0398 67.3359 61.017 67.3899 60.9842C67.5619 60.8796 67.7635 60.7209 67.9651 60.5231C68.1078 60.3832 68.2325 60.2414 68.3321 60.1133C68.2788 59.9997 68.2157 59.8718 68.1399 59.718C68.1015 59.64 68.0598 59.5554 68.0144 59.4627C67.8363 59.0987 67.605 58.6136 67.4425 58.1143C67.2923 57.6527 67.1046 56.9033 67.2862 56.0952L67.2876 56.089C67.2883 56.0857 67.2891 56.0825 67.2898 56.0793C67.3964 55.6227 67.6272 55.2529 67.7613 55.0553C67.9265 54.8117 68.1241 54.5734 68.3332 54.3583C68.6685 54.0135 69.3493 53.3975 70.2376 53.2044C70.6473 53.1153 71.0235 53.153 71.1964 53.1733C71.4178 53.1994 71.6407 53.243 71.836 53.2864C72.215 53.3706 72.6466 53.4897 73.0163 53.5918L73.0446 53.5996C73.45 53.7115 73.7872 53.804 74.0563 53.8637C74.0598 53.8645 74.0632 53.8653 74.0666 53.866C74.1399 53.823 74.2288 53.7663 74.3372 53.6924C74.4631 53.6065 74.5853 53.5184 74.7281 53.4155C74.767 53.3875 74.8074 53.3584 74.8498 53.3279C75.0308 53.1979 75.2532 53.0399 75.4804 52.8985C76.0373 52.5517 76.7289 52.5001 77.3311 52.7604C78.9921 53.4784 80.4807 53.7713 82.5 53.7713C90.0325 53.7713 96 47.9185 96 40.8713C96 33.8289 90.0377 28 82.5 28ZM74.2955 53.909C74.294 53.9088 74.2925 53.9086 74.2909 53.9084C74.3199 53.91 74.3238 53.9123 74.2955 53.909ZM68.5409 59.7989C68.541 59.7987 68.5402 59.8008 68.538 59.8052C68.5398 59.8011 68.5408 59.799 68.5409 59.7989ZM86 36C85.6044 36 85.2178 36.1173 84.8889 36.3371C84.56 36.5568 84.3036 36.8692 84.1522 37.2346C84.0009 37.6001 83.9613 38.0022 84.0384 38.3902C84.1156 38.7781 84.3061 39.1345 84.5858 39.4142C84.8655 39.6939 85.2219 39.8844 85.6098 39.9616C85.9978 40.0387 86.3999 39.9991 86.7654 39.8478C87.1308 39.6964 87.4432 39.44 87.6629 39.1111C87.8827 38.7822 88 38.3956 88 38C88 37.4696 87.7893 36.9609 87.4142 36.5858C87.0391 36.2107 86.5304 36 86 36ZM82.6666 33.0112C83.6533 32.3519 84.8133 32 86 32C87.5913 32 89.1174 32.6321 90.2426 33.7574C91.3679 34.8826 92 36.4087 92 38C92 39.1867 91.6481 40.3467 90.9888 41.3334C90.3295 42.3201 89.3925 43.0892 88.2961 43.5433C87.1997 43.9974 85.9933 44.1162 84.8295 43.8847C83.6656 43.6532 82.5965 43.0818 81.7574 42.2426C80.9182 41.4035 80.3468 40.3344 80.1153 39.1705C79.8838 38.0067 80.0026 36.8003 80.4567 35.7039C80.9108 34.6075 81.6799 33.6705 82.6666 33.0112Z"
    fill="url(#paint0_linear_15758_78234)"
  />
<path
    d="M226.707 52.7071C227.098 52.3166 227.098 51.6834 226.707 51.2929L220.343 44.9289C219.953 44.5384 219.319 44.5384 218.929 44.9289C218.538 45.3195 218.538 45.9526 218.929 46.3431L224.586 52L218.929 57.6569C218.538 58.0474 218.538 58.6805 218.929 59.0711C219.319 59.4616 219.953 59.4616 220.343 59.0711L226.707 52.7071ZM124 52V53H128.25V52V51H124V52ZM136.75 52V53H145.25V52V51H136.75V52ZM153.75 52V53H162.25V52V51H153.75V52ZM170.75 52V53H179.25V52V51H170.75V52ZM187.75 52V53H196.25V52V51H187.75V52ZM204.75 52V53H213.25V52V51H204.75V52ZM221.75 52V53H226V52V51H221.75V52ZM226.707 52.7071C227.098 52.3166 227.098 51.6834 226.707 51.2929L220.343 44.9289C219.953 44.5384 219.319 44.5384 218.929 44.9289C218.538 45.3195 218.538 45.9526 218.929 46.3431L224.586 52L218.929 57.6569C218.538 58.0474 218.538 58.6805 218.929 59.0711C219.319 59.4616 219.953 59.4616 220.343 59.0711L226.707 52.7071ZM124 52V53H128.25V52V51H124V52ZM136.75 52V53H145.25V52V51H136.75V52ZM153.75 52V53H162.25V52V51H153.75V52ZM170.75 52V53H179.25V52V51H170.75V52ZM187.75 52V53H196.25V52V51H187.75V52ZM204.75 52V53H213.25V52V51H204.75V52ZM221.75 52V53H226V52V51H221.75V52Z"
    fill="#9EA7B3"
  />
<path
    d="M274.477 61.6212L266.973 81.4002C266.49 81.0229 265.997 80.6298 265.509 80.2211L272.803 60.9871L274.477 61.6212ZM270.452 59.4829L259.7 74.6972C260.109 75.1531 260.529 75.5986 260.949 76.0284L271.916 60.5154L270.452 59.4829ZM268.552 57.4442L255.187 68.7698C255.502 69.2781 255.827 69.7812 256.173 70.2739L269.712 58.8069L268.552 57.4442ZM267.225 54.9915L252.143 62.2868C252.327 62.8581 252.532 63.4188 252.752 63.9744L268.007 56.6005L267.225 54.9915ZM266.553 52.2872L251.005 55.4055C251.01 56.0135 251.041 56.6162 251.099 57.2136L266.905 54.0429L266.553 52.2872ZM250.999 48.6553V50.4424L266.48 51.2862L266.579 49.4991L250.999 48.6553ZM250.999 41.6483V43.5193L266.758 48.5138L267.298 46.8105L250.999 41.6483ZM250.999 33.3258V35.4326L267.723 45.8986L268.673 44.384L250.999 33.3258ZM256.31 27.304L254.316 27.8019L269.308 43.6083L270.609 42.3767L256.31 27.304ZM264.328 25.302L262.528 25.7527L271.418 41.7845L272.987 40.9198L264.328 25.302ZM271.365 23.5463L269.628 23.9761L273.921 40.5477L275.652 40.097L271.365 23.5463ZM278.428 22.2204L277.547 22.0002L276.639 22.2256L276.649 39.9712H278.439L278.428 22.2204ZM283.707 23.5411L279.436 40.097L281.173 40.5424L285.449 23.9708L283.707 23.5411ZM290.749 25.2968L282.107 40.9145L283.671 41.7793L292.544 25.7422L290.749 25.2968ZM298.763 27.2988L284.484 42.3715L285.785 43.6031L300.751 27.7966L298.763 27.2988ZM286.42 44.3788L287.375 45.8934L304.099 35.4011V33.2943L286.42 44.3788ZM287.795 46.8L288.341 48.5086L304.099 43.4983V41.6221L287.795 46.8ZM288.519 49.4938L288.619 51.281L304.099 50.4215V48.6291L288.519 49.4938ZM288.546 52.282L288.199 54.0324L304 57.1874C304.063 56.5952 304.089 55.9925 304.094 55.3846L288.546 52.282ZM287.879 54.9863L287.097 56.5952L302.357 63.9534C302.577 63.3979 302.782 62.8318 302.966 62.2606L287.879 54.9863ZM286.551 57.4338L285.392 58.8016L298.941 70.2582C299.282 69.7655 299.613 69.2624 299.927 68.7488L286.551 57.4338ZM284.652 59.4777L283.193 60.5101L294.166 76.0074C294.591 75.5776 295.011 75.1322 295.415 74.6762L284.652 59.4777ZM282.306 60.9818L280.632 61.616L288.147 81.3845C288.629 81.0072 289.118 80.6141 289.611 80.2053L282.306 60.9818Z"
    fill="url(#paint1_linear_15758_78234)"
  />
<defs>
<linearGradient
      id="paint0_linear_15758_78234"
      x1="59.931"
      y1="45.5381"
      x2="136.851"
      y2="45.5962"
      gradientUnits="userSpaceOnUse"
    >
<stop stop-color="#0056B3" />
<stop
        offset="1"
        stop-color="#004289"
      />
</linearGradient>
<linearGradient
      id="paint1_linear_15758_78234"
      x1="266.105"
      y1="44.8464"
      x2="339.042"
      y2="44.8957"
      gradientUnits="userSpaceOnUse"
    >
<stop stop-color="#0056B3" />
<stop
        offset="1"
        stop-color="#004289"
      />
</linearGradient>
</defs>
</svg>
