<svg width="77" height="80" viewBox="0 0 77 80" fill="none" xmlns="http://www.w3.org/2000/svg">
<g clip-path="url(#clip0_25708_49660)">
<path d="M7.297 74.2196C6.10825 74.2196 4.94169 73.7553 4.07165 72.8852C2.79944 71.613 2.3946 69.706 3.04092 68.0272L10.7399 48.0092C11.079 47.1277 11.8327 46.484 12.7569 46.2878C13.6811 46.0916 14.632 46.373 15.2996 47.0415L29.9153 61.6573C30.5829 62.3249 30.8653 63.2757 30.6691 64.1999C30.4729 65.1241 29.8292 65.8779 28.9476 66.217L8.92966 73.916C8.39876 74.1201 7.84477 74.2196 7.29612 74.2196H7.297ZM13.4929 49.7537L6.02391 69.1734C5.83126 69.675 5.952 70.2449 6.33197 70.6249C6.71195 71.0049 7.28191 71.1256 7.78351 70.933L27.2031 63.464L13.4929 49.7537ZM36.7922 62.8922C35.6673 62.8922 34.562 62.4528 33.7382 61.6289L15.3768 43.2675C14.1428 42.0335 13.7504 40.1833 14.3763 38.5542L17.8156 29.6115C18.2843 28.3925 19.2263 27.4257 20.4 26.9588C22.0956 26.284 24.0248 26.68 25.313 27.9691L48.9869 51.6439C50.0825 52.7394 50.5441 54.2975 50.2227 55.8129C49.9013 57.3275 48.8466 58.5642 47.4013 59.12L38.3387 62.6055C37.8362 62.799 37.3115 62.8931 36.7922 62.8931V62.8922ZM22.0912 29.8308C21.9207 29.8308 21.7476 29.8627 21.5825 29.9284C21.2345 30.0669 20.9495 30.3697 20.7995 30.7585L17.3601 39.7013C17.1861 40.1523 17.2953 40.6654 17.6371 41.0072L35.9985 59.3686C36.311 59.6811 36.7789 59.7805 37.1917 59.6216L46.2543 56.1361C46.6858 55.9701 47.0009 55.6008 47.0968 55.148C47.1927 54.6952 47.0551 54.23 46.7275 53.9024L23.0527 30.2276C22.7926 29.9675 22.4445 29.8299 22.0894 29.8299L22.0912 29.8308ZM60.562 59.4227C58.0495 59.4227 56.0049 57.3781 56.0049 54.8657C56.0049 52.3532 58.0495 50.3086 60.562 50.3086C63.0744 50.3086 65.119 52.3532 65.119 54.8657C65.119 57.3781 63.0744 59.4227 60.562 59.4227ZM60.562 53.5047C59.8109 53.5047 59.201 54.1155 59.201 54.8657C59.201 55.6159 59.8118 56.2267 60.562 56.2267C61.3122 56.2267 61.923 55.6159 61.923 54.8657C61.923 54.1155 61.3122 53.5047 60.562 53.5047ZM72.4105 50.5483C72.193 50.5483 71.9746 50.5332 71.7553 50.5013C70.5505 50.329 69.4843 49.6978 68.7545 48.7239C67.944 47.6426 66.9434 46.745 65.7804 46.0561C64.6183 45.368 63.3496 44.9215 62.0117 44.7297C60.6738 44.538 59.3324 44.6116 58.0229 44.9463C56.7134 45.2819 55.5015 45.8625 54.4202 46.6731C53.4463 47.4029 52.2469 47.7109 51.0413 47.5387C49.8356 47.3665 48.7703 46.7353 48.0405 45.7613C46.5331 43.7505 46.9423 40.8882 48.9532 39.3808C50.9969 37.8484 53.2883 36.7502 55.7626 36.1163C58.2368 35.4825 60.7733 35.3449 63.3026 35.7062C65.8319 36.0684 68.2281 36.9118 70.4263 38.2133C72.6236 39.5139 74.5145 41.2105 76.0478 43.2551C77.5552 45.266 77.146 48.1282 75.1351 49.6357C74.3379 50.2332 73.3897 50.5474 72.4114 50.5474L72.4105 50.5483ZM62.4645 41.5656C64.2206 41.8169 65.8843 42.4019 67.4095 43.3057C68.9356 44.2095 70.2478 45.3867 71.3123 46.8063C71.7624 47.4073 72.6182 47.5289 73.2184 47.0788C73.8185 46.6287 73.941 45.7738 73.4909 45.1727C72.2107 43.4655 70.6322 42.0495 68.798 40.9637C66.963 39.877 64.9628 39.1721 62.8507 38.8703C60.7386 38.5684 58.6213 38.6838 56.5554 39.2121C54.4895 39.7412 52.5763 40.6574 50.8699 41.9376C50.2698 42.3877 50.1473 43.2427 50.5974 43.8437C50.8158 44.1349 51.1336 44.3231 51.4941 44.3746C51.8536 44.4261 52.2123 44.3347 52.5035 44.1163C53.9222 43.0527 55.5131 42.2901 57.231 41.8506C58.9489 41.4103 60.7102 41.3153 62.4654 41.5665L62.4645 41.5656ZM42.8061 35.7488C40.2936 35.7488 38.2491 33.7042 38.2491 31.1918C38.2491 28.6793 40.2936 26.6347 42.8061 26.6347C46.6875 26.6347 48.1231 25.3847 48.9399 24.2963C50.1686 22.6583 50.8309 20.2532 51.7018 16.7704L51.7684 16.5041C52.578 13.2601 53.5857 9.22507 56.0147 5.98551C58.9932 2.01352 63.5103 0 69.4399 0C71.9533 0 73.997 2.04459 73.997 4.55705C73.997 7.0695 71.9524 9.11409 69.4399 9.11409C65.5585 9.11409 64.1229 10.3641 63.3061 11.4525C62.0774 13.0905 61.4151 15.4956 60.5442 18.9784L60.4776 19.2447C59.668 22.4887 58.6612 26.5237 56.2313 29.7633C53.2528 33.7344 48.7357 35.7479 42.8061 35.7479V35.7488ZM69.4399 3.19606C64.502 3.19606 60.9464 4.73549 58.5715 7.90225C56.5296 10.6242 55.609 14.313 54.8694 17.2765L54.8029 17.5428C53.8369 21.4056 53.0859 24.0947 51.4967 26.213C49.6457 28.6811 46.8846 29.8299 42.8061 29.8299C42.055 29.8299 41.4451 30.4407 41.4451 31.1909C41.4451 31.941 42.0559 32.5519 42.8061 32.5519C47.744 32.5519 51.2996 31.0124 53.6745 27.8457C55.7164 25.1228 56.637 21.4349 57.3766 18.4714L57.4432 18.2051C58.4091 14.3423 59.1602 11.6532 60.7493 9.53491C62.6004 7.06684 65.3623 5.91804 69.4399 5.91804C70.191 5.91804 70.8009 5.30723 70.8009 4.55705C70.8009 3.80686 70.1901 3.19606 69.4399 3.19606ZM33.9193 29.8325C32.9676 29.8325 32.0079 29.536 31.1893 28.9217C29.1793 27.4133 28.7719 24.5511 30.2802 22.5411C31.0917 21.4598 31.6732 20.2479 32.0087 18.9393C32.3443 17.6307 32.418 16.2884 32.2271 14.9504C32.0363 13.6125 31.5906 12.3448 30.9026 11.1809C30.2145 10.0179 29.3178 9.01644 28.2365 8.20499C26.2265 6.69663 25.819 3.83438 27.3274 1.82442C28.8358 -0.185549 31.698 -0.593046 33.708 0.915316C35.7508 2.44854 37.4465 4.34043 38.7471 6.53949C40.0477 8.73767 40.8902 11.1347 41.2507 13.664C41.6111 16.1925 41.4717 18.7298 40.837 21.2041C40.2022 23.6784 39.1031 25.9689 37.569 28.0117C36.675 29.2031 35.3042 29.8317 33.9184 29.8317L33.9193 29.8325ZM30.9745 3.19961C30.5608 3.19961 30.1515 3.38693 29.8843 3.74294C29.4341 4.34309 29.5558 5.19803 30.1559 5.64903C31.5746 6.7135 32.7509 8.02743 33.6538 9.55355C34.5567 11.0797 35.1418 12.7434 35.3912 14.4995C35.6416 16.2555 35.5448 18.0169 35.1045 19.7339C34.6641 21.4518 33.9006 23.0418 32.8362 24.4596C32.3861 25.0598 32.5077 25.9147 33.1078 26.3657C33.708 26.8158 34.5629 26.6942 35.0139 26.094C36.2941 24.3877 37.2121 22.4754 37.7421 20.4104C38.2721 18.3445 38.3884 16.2262 38.0875 14.115C37.7865 12.0039 37.0834 10.0019 35.9976 8.16682C34.9118 6.33086 33.4958 4.75147 31.7903 3.47127C31.5462 3.2875 31.2595 3.19961 30.9745 3.19961ZM69.4399 29.8299C66.9275 29.8299 64.8829 27.7853 64.8829 25.2728C64.8829 22.7604 66.9275 20.7158 69.4399 20.7158C71.9524 20.7158 73.997 22.7604 73.997 25.2728C73.997 27.7853 71.9524 29.8299 69.4399 29.8299ZM69.4399 23.911C68.6888 23.911 68.0789 24.5218 68.0789 25.2719C68.0789 26.0221 68.6897 26.6329 69.4399 26.6329C70.1901 26.6329 70.8009 26.0221 70.8009 25.2719C70.8009 24.5218 70.1901 23.911 69.4399 23.911ZM22.0912 20.9519C19.5779 20.9519 17.5342 18.9073 17.5342 16.3949C17.5342 13.8824 19.5787 11.8378 22.0912 11.8378C24.6037 11.8378 26.6482 13.8824 26.6482 16.3949C26.6482 18.9073 24.6037 20.9519 22.0912 20.9519ZM22.0912 15.033C21.3401 15.033 20.7302 15.6438 20.7302 16.394C20.7302 17.1442 21.341 17.755 22.0912 17.755C22.8414 17.755 23.4522 17.1442 23.4522 16.394C23.4522 15.6438 22.8414 15.033 22.0912 15.033Z" fill="#0056B3"/>
</g>
<defs>
<clipPath id="clip0_25708_49660">
<rect width="76.9566" height="80" fill="white"/>
</clipPath>
</defs>
</svg>
